<svg xmlns="http://www.w3.org/2000/svg" xmlns:xlink="http://www.w3.org/1999/xlink" width="500" zoomAndPan="magnify" viewBox="0 0 375 374.999991" height="500" preserveAspectRatio="xMidYMid meet" version="1.0"><defs><clipPath id="3adccfef45"><path d="M 45.59375 52.371094 L 329.09375 52.371094 L 329.09375 322.371094 L 45.59375 322.371094 Z M 45.59375 52.371094 " clip-rule="nonzero"/></clipPath></defs><g clip-path="url(#3adccfef45)"><path fill="#0e3f80" d="M 324.503906 142.707031 C 309.148438 86.164062 262.699219 52.40625 200.242188 52.40625 L 45.59375 52.40625 L 48.644531 59.398438 C 61.75 89.441406 91.40625 108.863281 124.191406 108.871094 L 166.304688 108.871094 L 166.648438 108.863281 C 168.246094 108.75 174.164062 108.390625 183.035156 108.390625 C 191.566406 108.390625 200.257812 108.726562 208.839844 109.382812 L 209.679688 109.445312 C 242.535156 112.03125 287.550781 120.621094 315.367188 146.808594 L 315.726562 147.140625 C 315.871094 147.28125 316.015625 147.414062 316.15625 147.558594 L 329.394531 160.742188 Z M 328.738281 207.871094 L 328.703125 208.414062 C 320.351562 278.863281 270.597656 322.621094 198.867188 322.621094 L 100.203125 322.621094 L 100.203125 189.246094 L 105.195312 189.246094 C 134.082031 189.246094 157.578125 212.742188 157.578125 241.628906 L 157.578125 265.242188 L 201.273438 265.242188 C 222.796875 265.242188 240.917969 258.175781 253.691406 244.804688 C 266.6875 231.191406 273.554688 211.523438 273.554688 187.921875 L 273.554688 187.109375 C 273.554688 168.835938 269.535156 153.078125 261.609375 140.265625 L 254.207031 128.308594 L 267.492188 132.917969 C 283.976562 138.636719 297.347656 146.253906 307.230469 155.566406 C 321.671875 169.171875 328.910156 186.765625 328.738281 207.871094 " fill-opacity="1" fill-rule="nonzero"/></g></svg>