<svg xmlns="http://www.w3.org/2000/svg" xmlns:xlink="http://www.w3.org/1999/xlink" width="1920" zoomAndPan="magnify" viewBox="0 0 1440 809.999993" height="1080" preserveAspectRatio="xMidYMid meet" version="1.0"><defs><g/></defs><g fill="#ffffff" fill-opacity="1"><g transform="translate(9.193092, 480.52915)"><g><path d="M 649.71875 -143.875 C 645 -143.3125 640.21875 -142.78125 635.375 -142.28125 C 630.96875 -141.726562 626.53125 -141.210938 622.0625 -140.734375 C 590 -136.597656 558.082031 -131.484375 526.3125 -125.390625 C 489.820312 -118.679688 453.425781 -110.835938 417.125 -101.859375 C 410.800781 -100.304688 404.972656 -97.601562 399.640625 -93.75 C 356.859375 -63.675781 312.613281 -36.476562 266.90625 -12.15625 C 221.207031 12.15625 174.25 34.054688 126.03125 53.546875 C 105 62.410156 83.550781 69.941406 61.6875 76.140625 C 51.613281 79.046875 41.3125 80.972656 30.78125 81.921875 C 29.40625 82.085938 28.023438 82.1875 26.640625 82.21875 C 21.921875 82.53125 17.394531 81.882812 13.0625 80.28125 C 6.3125 77.550781 4.175781 72.753906 6.65625 65.890625 C 8.613281 60.984375 11.5625 56.613281 15.5 52.78125 C 23.1875 44.84375 31.753906 37.976562 41.203125 32.1875 C 64.429688 17.738281 88.523438 4.898438 113.484375 -6.328125 C 138.191406 -17.722656 163.257812 -28.242188 188.6875 -37.890625 C 189.375 -38.035156 190 -38.269531 190.5625 -38.59375 C 191.363281 -39 192.269531 -39.375 193.28125 -39.71875 C 196.96875 -40.875 199.398438 -43.421875 200.578125 -47.359375 C 202.628906 -53.222656 204.785156 -59.050781 207.046875 -64.84375 C 207.398438 -65.800781 207.78125 -66.851562 208.1875 -68 C 213.101562 -81.113281 218.101562 -94.328125 223.1875 -107.640625 C 232.726562 -132.734375 242.234375 -157.882812 251.703125 -183.09375 C 258.003906 -198.96875 262.957031 -215.273438 266.5625 -232.015625 C 266.769531 -233.523438 267.207031 -235.050781 267.875 -236.59375 C 269.082031 -238.445312 270.738281 -239.117188 272.84375 -238.609375 C 273.644531 -238.878906 274.554688 -238.898438 275.578125 -238.671875 C 276.398438 -238.566406 277.085938 -238.238281 277.640625 -237.6875 C 278.191406 -237.132812 278.476562 -236.445312 278.5 -235.625 C 278.75 -233.101562 278.679688 -230.671875 278.296875 -228.328125 C 275.628906 -213.566406 271.472656 -199.175781 265.828125 -185.15625 C 256.179688 -159.9375 246.46875 -134.648438 236.6875 -109.296875 C 232.78125 -98.910156 228.8125 -88.535156 224.78125 -78.171875 C 224 -76.191406 223.222656 -74.210938 222.453125 -72.234375 C 220.085938 -65.929688 217.664062 -59.5625 215.1875 -53.125 C 215.070312 -52.875 215.015625 -52.6875 215.015625 -52.5625 C 214.597656 -51.851562 214.363281 -51.179688 214.3125 -50.546875 C 214.257812 -49.910156 214.585938 -49.320312 215.296875 -48.78125 C 215.421875 -48.65625 215.644531 -48.535156 215.96875 -48.421875 C 216.21875 -48.554688 216.5625 -48.691406 217 -48.828125 C 217.125 -48.828125 217.25 -48.828125 217.375 -48.828125 C 223.875 -51.078125 230.28125 -53.316406 236.59375 -55.546875 C 247.851562 -59.554688 259.050781 -63.53125 270.1875 -67.46875 C 309.84375 -80.738281 349.890625 -92.484375 390.328125 -102.703125 C 395.160156 -103.898438 399.53125 -105.9375 403.4375 -108.8125 C 414.769531 -117.300781 425.910156 -125.984375 436.859375 -134.859375 C 447.804688 -143.734375 458.296875 -153.09375 468.328125 -162.9375 C 479.296875 -173.300781 489.195312 -184.710938 498.03125 -197.171875 C 503.289062 -204.367188 507.191406 -212.285156 509.734375 -220.921875 C 513.191406 -234.191406 510.484375 -245.734375 501.609375 -255.546875 C 498.359375 -259.179688 494.710938 -262.273438 490.671875 -264.828125 C 486.628906 -267.378906 482.382812 -269.582031 477.9375 -271.4375 C 462.644531 -277.539062 446.78125 -281.304688 430.34375 -282.734375 C 416.039062 -284.140625 401.738281 -284.664062 387.4375 -284.3125 C 374.382812 -283.988281 361.378906 -283.128906 348.421875 -281.734375 C 315.015625 -278.253906 282.039062 -272.363281 249.5 -264.0625 C 227.289062 -258.644531 205.5625 -252.054688 184.3125 -244.296875 C 163.0625 -236.546875 142.453125 -226.941406 122.484375 -215.484375 C 115.085938 -211.441406 107.945312 -207.050781 101.0625 -202.3125 C 94.175781 -197.570312 87.609375 -192.410156 81.359375 -186.828125 C 76.617188 -182.222656 72.238281 -177.382812 68.21875 -172.3125 C 65.207031 -168.894531 63.0625 -164.957031 61.78125 -160.5 C 59.75 -153.632812 61.375 -147.84375 66.65625 -143.125 C 69.882812 -140.164062 73.597656 -137.984375 77.796875 -136.578125 C 84.929688 -133.796875 92.316406 -132.242188 99.953125 -131.921875 C 104.003906 -131.710938 108.109375 -131.597656 112.265625 -131.578125 C 117.816406 -131.460938 123.375 -131.3125 128.9375 -131.125 C 133.414062 -130.988281 137.804688 -130.691406 142.109375 -130.234375 C 142.679688 -130.109375 143.175781 -129.847656 143.59375 -129.453125 C 144.007812 -129.054688 144.351562 -128.578125 144.625 -128.015625 C 144.78125 -126.878906 144.515625 -126.132812 143.828125 -125.78125 C 143.148438 -125.425781 142.457031 -125.300781 141.75 -125.40625 L 140.515625 -125.375 C 140.140625 -125.363281 139.734375 -125.351562 139.296875 -125.34375 C 135.253906 -125.425781 131.3125 -125.414062 127.46875 -125.3125 C 126.207031 -125.28125 124.945312 -125.25 123.6875 -125.21875 C 121.726562 -125.175781 119.710938 -125.128906 117.640625 -125.078125 L 117.453125 -125.0625 C 111.773438 -124.925781 106.160156 -124.914062 100.609375 -125.03125 C 95.054688 -125.144531 89.488281 -125.695312 83.90625 -126.6875 C 77.625 -127.925781 71.519531 -129.859375 65.59375 -132.484375 C 62.414062 -133.921875 59.40625 -135.707031 56.5625 -137.84375 C 48.070312 -144.570312 45.78125 -153.191406 49.6875 -163.703125 C 52.414062 -170.578125 56.425781 -176.664062 61.71875 -181.96875 C 68.59375 -189.46875 76.179688 -196.253906 84.484375 -202.328125 C 107.097656 -218.648438 131.273438 -231.992188 157.015625 -242.359375 C 177.742188 -250.953125 198.820312 -258.257812 220.25 -264.28125 C 241.675781 -270.300781 263.375 -275.375 285.34375 -279.5 C 319.1875 -286.332031 353.316406 -290.238281 387.734375 -291.21875 C 388.804688 -291.25 389.910156 -291.28125 391.046875 -291.3125 C 404.085938 -291.632812 417.101562 -291.296875 430.09375 -290.296875 C 443.09375 -289.296875 455.9375 -287.15625 468.625 -283.875 C 479.101562 -281.226562 489.070312 -277.316406 498.53125 -272.140625 C 503.457031 -269.347656 507.894531 -265.984375 511.84375 -262.046875 C 524.976562 -249.054688 528.421875 -233.59375 522.171875 -215.65625 C 519.347656 -207.695312 515.367188 -200.242188 510.234375 -193.296875 C 500.859375 -180.265625 490.335938 -168.273438 478.671875 -157.328125 C 464.441406 -143.785156 449.554688 -130.988281 434.015625 -118.9375 C 433.585938 -118.550781 433.03125 -118.1875 432.34375 -117.84375 C 431.539062 -117.257812 430.738281 -116.613281 429.9375 -115.90625 C 429.132812 -115.195312 428.585938 -114.238281 428.296875 -113.03125 C 428.867188 -112.59375 429.378906 -112.378906 429.828125 -112.390625 C 430.515625 -112.535156 431.207031 -112.675781 431.90625 -112.8125 C 432.59375 -113.15625 433.28125 -113.398438 433.96875 -113.546875 C 474.675781 -122.878906 515.550781 -130.765625 556.59375 -137.203125 C 576.382812 -140.160156 596.085938 -142.925781 615.703125 -145.5 C 622.503906 -146.351562 629.234375 -147.210938 635.890625 -148.078125 C 638.210938 -148.441406 640.640625 -148.65625 643.171875 -148.71875 C 645.503906 -148.90625 647.84375 -148.75 650.1875 -148.25 C 650.5 -148.125 650.800781 -147.890625 651.09375 -147.546875 C 651.382812 -147.210938 651.535156 -146.921875 651.546875 -146.671875 C 651.691406 -145.785156 651.566406 -145.128906 651.171875 -144.703125 C 650.773438 -144.285156 650.289062 -144.007812 649.71875 -143.875 Z M 181.40625 19.734375 C 181.40625 19.734375 181.46875 19.726562 181.59375 19.71875 C 182.59375 19.25 183.523438 18.65625 184.390625 17.9375 C 185.253906 17.226562 185.828125 16.269531 186.109375 15.0625 C 185.796875 15.070312 185.578125 15.078125 185.453125 15.078125 C 182.691406 15.273438 180.921875 14.957031 180.140625 14.125 C 179.359375 13.289062 179.285156 11.703125 179.921875 9.359375 C 180.253906 7.835938 180.753906 6.304688 181.421875 4.765625 C 181.597656 4.328125 181.742188 3.976562 181.859375 3.71875 C 182.859375 0.914062 183.832031 -1.820312 184.78125 -4.5 C 187.09375 -10.550781 189.304688 -16.660156 191.421875 -22.828125 C 191.546875 -23.085938 191.726562 -23.441406 191.96875 -23.890625 C 192.382812 -24.847656 192.644531 -25.785156 192.75 -26.703125 C 192.851562 -27.617188 192.609375 -28.535156 192.015625 -29.453125 C 191.890625 -29.453125 191.765625 -29.453125 191.640625 -29.453125 C 190.953125 -29.304688 190.328125 -29.078125 189.765625 -28.765625 C 189.390625 -28.628906 189.046875 -28.492188 188.734375 -28.359375 C 171.304688 -21.546875 154.070312 -14.378906 137.03125 -6.859375 C 120 0.660156 103.195312 8.789062 86.625 17.53125 C 73.1875 24.363281 60.195312 31.972656 47.65625 40.359375 C 40.382812 44.953125 33.796875 50.382812 27.890625 56.65625 C 24.628906 59.757812 22.207031 63.476562 20.625 67.8125 C 20.144531 69.207031 20.21875 70.523438 20.84375 71.765625 C 21.476562 73.003906 22.59375 73.832031 24.1875 74.25 C 25.945312 74.695312 27.804688 74.898438 29.765625 74.859375 C 31.847656 74.804688 33.925781 74.566406 36 74.140625 C 49.363281 71.421875 62.578125 67.75 75.640625 63.125 C 104.046875 53.269531 131.976562 42.164062 159.4375 29.8125 C 166.789062 26.601562 174.113281 23.242188 181.40625 19.734375 Z M 371.34375 -86.328125 C 371.457031 -86.648438 371.664062 -86.878906 371.96875 -87.015625 C 372.476562 -87.285156 372.867188 -87.644531 373.140625 -88.09375 C 373.410156 -88.539062 373.347656 -89.164062 372.953125 -89.96875 C 372.253906 -89.820312 371.472656 -89.582031 370.609375 -89.25 C 365.972656 -87.875 361.367188 -86.59375 356.796875 -85.40625 C 344.265625 -81.757812 331.800781 -78.046875 319.40625 -74.265625 C 284.96875 -63.703125 250.847656 -52.097656 217.046875 -39.453125 C 214.097656 -38.429688 211.648438 -37.0625 209.703125 -35.34375 C 207.765625 -33.625 206.390625 -31.210938 205.578125 -28.109375 C 205.117188 -26.578125 204.5625 -25.050781 203.90625 -23.53125 C 203.476562 -22.820312 203.148438 -22.113281 202.921875 -21.40625 C 202.085938 -19.3125 200.769531 -16.378906 198.96875 -12.609375 C 197.101562 -8.773438 195.242188 -4.753906 193.390625 -0.546875 C 191.546875 3.660156 190.28125 7.253906 189.59375 10.234375 C 188.914062 13.222656 189.273438 14.921875 190.671875 15.328125 C 192.617188 14.835938 194.394531 14.035156 196 12.921875 C 196.8125 12.460938 197.65625 12.03125 198.53125 11.625 C 235.695312 -5.820312 272 -25.046875 307.4375 -46.046875 C 321.46875 -54.597656 335.378906 -63.269531 349.171875 -72.0625 C 355.191406 -76.007812 361.21875 -79.851562 367.25 -83.59375 C 367.363281 -83.71875 367.484375 -83.78125 367.609375 -83.78125 C 368.984375 -84.507812 370.226562 -85.359375 371.34375 -86.328125 Z M 371.34375 -86.328125 "/></g></g><g transform="translate(426.340158, 470.167204)"><g><path d="M 53 -37.640625 C 49.4375 -33.960938 45.253906 -30.785156 40.453125 -28.109375 C 35.660156 -25.441406 31.640625 -23.671875 28.390625 -22.796875 C 25.140625 -21.929688 21.78125 -21.394531 18.3125 -21.1875 C 12.769531 -20.800781 7.640625 -21.429688 2.921875 -23.078125 C -4.785156 -25.960938 -7.582031 -31.785156 -5.46875 -40.546875 C -3.445312 -48.109375 0.882812 -54.082031 7.53125 -58.46875 C 14.175781 -62.863281 21.09375 -65.085938 28.28125 -65.140625 C 28.28125 -65.140625 28.34375 -65.144531 28.46875 -65.15625 C 30.289062 -65.320312 32.023438 -65.238281 33.671875 -64.90625 C 36.484375 -63.96875 38.289062 -62.367188 39.09375 -60.109375 C 39.90625 -57.859375 39.460938 -55.328125 37.765625 -52.515625 C 33.890625 -46.285156 28.492188 -42.742188 21.578125 -41.890625 C 16.984375 -41.328125 12.53125 -41.4375 8.21875 -42.21875 C 7.40625 -42.320312 6.691406 -42.082031 6.078125 -41.5 C 5.460938 -40.914062 5.097656 -40.207031 4.984375 -39.375 C 3.859375 -33.925781 5.613281 -30.503906 10.25 -29.109375 C 15.976562 -27.296875 21.867188 -27.445312 27.921875 -29.5625 C 34.929688 -31.925781 41.546875 -36.25 47.765625 -42.53125 C 53.984375 -48.8125 57.585938 -51.753906 58.578125 -51.359375 C 59.566406 -50.972656 59.894531 -49.800781 59.5625 -47.84375 C 58.757812 -44.726562 56.570312 -41.328125 53 -37.640625 Z M 12.34375 -51.890625 C 11.96875 -51.429688 11.707031 -50.929688 11.5625 -50.390625 C 11.425781 -49.847656 11.648438 -49.363281 12.234375 -48.9375 C 14.472656 -47.738281 16.875 -47.34375 19.4375 -47.75 C 22.007812 -48.15625 24.171875 -49.179688 25.921875 -50.828125 C 27.679688 -52.484375 28.410156 -54.476562 28.109375 -56.8125 C 27.898438 -57.625 27.445312 -58.128906 26.75 -58.328125 C 26.050781 -58.535156 25.351562 -58.566406 24.65625 -58.421875 C 20.019531 -57.484375 15.914062 -55.304688 12.34375 -51.890625 Z M 12.34375 -51.890625 "/></g></g><g transform="translate(481.379739, 468.80002)"><g><path d="M 73.71875 -49.046875 C 74.757812 -47.804688 73.554688 -45.472656 70.109375 -42.046875 C 66.671875 -38.617188 62.992188 -35.71875 59.078125 -33.34375 C 55.160156 -30.976562 50.609375 -28.59375 45.421875 -26.1875 C 41.992188 -24.601562 38.316406 -24.015625 34.390625 -24.421875 C 30.472656 -24.828125 28.460938 -27.140625 28.359375 -31.359375 C 28.253906 -35.578125 29.125 -39.796875 30.96875 -44.015625 C 32.820312 -48.347656 33.191406 -50.5625 32.078125 -50.65625 C 30.972656 -50.757812 28.71875 -49.664062 25.3125 -47.375 C 16.445312 -41.226562 8.234375 -34.238281 0.671875 -26.40625 C -1.347656 -23.84375 -3.960938 -22.394531 -7.171875 -22.0625 C -8.804688 -22.03125 -10.09375 -22.519531 -11.03125 -23.53125 C -11.976562 -24.539062 -12.117188 -25.65625 -11.453125 -26.875 C -6.160156 -37.28125 -0.804688 -47.570312 4.609375 -57.75 C 5.835938 -59.863281 7.703125 -61.203125 10.203125 -61.765625 C 11.273438 -61.972656 12.273438 -61.664062 13.203125 -60.84375 C 14.140625 -60.019531 14.617188 -59.070312 14.640625 -58 C 14.546875 -56.976562 14.171875 -55.769531 13.515625 -54.375 C 13.210938 -53.539062 12.929688 -52.738281 12.671875 -51.96875 C 12.410156 -51.207031 12.332031 -50.578125 12.4375 -50.078125 C 12.539062 -49.578125 12.941406 -49.429688 13.640625 -49.640625 C 14.554688 -50.171875 15.484375 -50.726562 16.421875 -51.3125 C 18.785156 -52.757812 21.050781 -54.140625 23.21875 -55.453125 C 25.144531 -56.640625 27.164062 -57.703125 29.28125 -58.640625 C 31.40625 -59.578125 33.628906 -60.234375 35.953125 -60.609375 C 39.742188 -60.953125 42.445312 -60.164062 44.0625 -58.25 C 45.6875 -56.332031 45.941406 -53.625 44.828125 -50.125 C 43.648438 -46.9375 42.40625 -43.785156 41.09375 -40.671875 C 39.46875 -37.722656 39.238281 -35.503906 40.40625 -34.015625 C 41.582031 -32.535156 46.804688 -34.40625 56.078125 -39.625 L 63.078125 -43.953125 C 69.628906 -48.410156 73.175781 -50.109375 73.71875 -49.046875 Z M 73.71875 -49.046875 "/></g></g><g transform="translate(550.699349, 467.078118)"><g><path d="M 73.71875 -49.046875 C 74.757812 -47.804688 73.554688 -45.472656 70.109375 -42.046875 C 66.671875 -38.617188 62.992188 -35.71875 59.078125 -33.34375 C 55.160156 -30.976562 50.609375 -28.59375 45.421875 -26.1875 C 41.992188 -24.601562 38.316406 -24.015625 34.390625 -24.421875 C 30.472656 -24.828125 28.460938 -27.140625 28.359375 -31.359375 C 28.253906 -35.578125 29.125 -39.796875 30.96875 -44.015625 C 32.820312 -48.347656 33.191406 -50.5625 32.078125 -50.65625 C 30.972656 -50.757812 28.71875 -49.664062 25.3125 -47.375 C 16.445312 -41.226562 8.234375 -34.238281 0.671875 -26.40625 C -1.347656 -23.84375 -3.960938 -22.394531 -7.171875 -22.0625 C -8.804688 -22.03125 -10.09375 -22.519531 -11.03125 -23.53125 C -11.976562 -24.539062 -12.117188 -25.65625 -11.453125 -26.875 C -6.160156 -37.28125 -0.804688 -47.570312 4.609375 -57.75 C 5.835938 -59.863281 7.703125 -61.203125 10.203125 -61.765625 C 11.273438 -61.972656 12.273438 -61.664062 13.203125 -60.84375 C 14.140625 -60.019531 14.617188 -59.070312 14.640625 -58 C 14.546875 -56.976562 14.171875 -55.769531 13.515625 -54.375 C 13.210938 -53.539062 12.929688 -52.738281 12.671875 -51.96875 C 12.410156 -51.207031 12.332031 -50.578125 12.4375 -50.078125 C 12.539062 -49.578125 12.941406 -49.429688 13.640625 -49.640625 C 14.554688 -50.171875 15.484375 -50.726562 16.421875 -51.3125 C 18.785156 -52.757812 21.050781 -54.140625 23.21875 -55.453125 C 25.144531 -56.640625 27.164062 -57.703125 29.28125 -58.640625 C 31.40625 -59.578125 33.628906 -60.234375 35.953125 -60.609375 C 39.742188 -60.953125 42.445312 -60.164062 44.0625 -58.25 C 45.6875 -56.332031 45.941406 -53.625 44.828125 -50.125 C 43.648438 -46.9375 42.40625 -43.785156 41.09375 -40.671875 C 39.46875 -37.722656 39.238281 -35.503906 40.40625 -34.015625 C 41.582031 -32.535156 46.804688 -34.40625 56.078125 -39.625 L 63.078125 -43.953125 C 69.628906 -48.410156 73.175781 -50.109375 73.71875 -49.046875 Z M 73.71875 -49.046875 "/></g></g><g transform="translate(620.01896, 465.356217)"><g><path d="M 73 -51.15625 C 73.851562 -49.570312 72.554688 -47.078125 69.109375 -43.671875 C 65.671875 -40.273438 59.570312 -36.101562 50.8125 -31.15625 C 47.5 -29.6875 45.09375 -28.523438 43.59375 -27.671875 C 42.101562 -26.816406 41.023438 -25.75 40.359375 -24.46875 C 39.703125 -23.1875 38.992188 -21.210938 38.234375 -18.546875 C 37.597656 -16.578125 36.753906 -13.941406 35.703125 -10.640625 C 34.273438 -6.566406 32.859375 -2.363281 31.453125 1.96875 C 28.898438 10.800781 25.820312 19.535156 22.21875 28.171875 C 18.625 36.804688 13.878906 44.382812 7.984375 50.90625 C 2.085938 57.425781 -5.597656 61.84375 -15.078125 64.15625 C -24.597656 66.21875 -33.847656 66.726562 -42.828125 65.6875 C -51.816406 64.65625 -60.648438 62.382812 -69.328125 58.875 C -72.828125 57.382812 -75.992188 55.378906 -78.828125 52.859375 C -83.546875 48.242188 -84.023438 42.957031 -80.265625 37 C -78.253906 34.050781 -75.890625 31.375 -73.171875 28.96875 C -67.753906 24.363281 -62.054688 20.128906 -56.078125 16.265625 C -44.972656 9.171875 -33.59375 2.640625 -21.9375 -3.328125 C -10.289062 -9.296875 1.488281 -15.082031 13.40625 -20.6875 C 14.21875 -21.082031 15.125 -21.507812 16.125 -21.96875 C 19.351562 -23.570312 22.679688 -25.171875 26.109375 -26.765625 C 28.472656 -27.703125 30.039062 -29.347656 30.8125 -31.703125 C 31.039062 -32.523438 31.082031 -33.28125 30.9375 -33.96875 C 30.800781 -34.40625 30.5625 -34.65625 30.21875 -34.71875 C 29.875 -34.78125 29.476562 -34.671875 29.03125 -34.390625 C 27.851562 -33.679688 26.644531 -32.867188 25.40625 -31.953125 C 24.71875 -31.554688 23.984375 -31.0625 23.203125 -30.46875 C 18.910156 -27.84375 14.425781 -26.628906 9.75 -26.828125 C 2.375 -26.640625 -1.457031 -29.859375 -1.75 -36.484375 C -2.019531 -41.898438 -1.222656 -47.0625 0.640625 -51.96875 C 2.515625 -56.875 5.226562 -61.519531 8.78125 -65.90625 C 9.144531 -66.34375 9.664062 -66.710938 10.34375 -67.015625 C 11.03125 -67.316406 11.722656 -67.539062 12.421875 -67.6875 C 12.546875 -67.695312 12.703125 -67.765625 12.890625 -67.890625 C 14.273438 -68.046875 15.351562 -67.722656 16.125 -66.921875 C 16.90625 -66.117188 17.085938 -65.082031 16.671875 -63.8125 C 15.910156 -62.03125 15.140625 -60.210938 14.359375 -58.359375 C 13.691406 -56.953125 13.03125 -55.550781 12.375 -54.15625 C 9.726562 -48.65625 8.613281 -42.945312 9.03125 -37.03125 C 9.1875 -35.769531 9.753906 -34.867188 10.734375 -34.328125 C 11.722656 -33.785156 12.847656 -33.816406 14.109375 -34.421875 C 17.785156 -36.023438 20.972656 -38.242188 23.671875 -41.078125 C 31.003906 -48.078125 36.988281 -56.085938 41.625 -65.109375 C 42.28125 -66.378906 43.054688 -67.46875 43.953125 -68.375 C 44.847656 -69.28125 46.050781 -69.8125 47.5625 -69.96875 C 49.507812 -70.21875 51.015625 -69.832031 52.078125 -68.8125 C 53.148438 -67.800781 53.484375 -66.4375 53.078125 -64.71875 C 51.460938 -59 49.742188 -53.34375 47.921875 -47.75 C 47.804688 -47.300781 47.660156 -46.882812 47.484375 -46.5 C 47.003906 -45.226562 46.5625 -43.890625 46.15625 -42.484375 C 45.757812 -41.085938 45.570312 -39.867188 45.59375 -38.828125 C 45.625 -37.796875 46.078125 -37.289062 46.953125 -37.3125 C 50.398438 -38.082031 55.390625 -40.976562 61.921875 -46 C 68.460938 -51.03125 72.15625 -52.75 73 -51.15625 Z M 24.390625 -11.96875 C 24.378906 -12.28125 24.46875 -12.566406 24.65625 -12.828125 C 25.019531 -13.535156 25.222656 -14.296875 25.265625 -15.109375 C 25.304688 -15.929688 25.0625 -16.78125 24.53125 -17.65625 C 24.101562 -17.644531 23.765625 -17.632812 23.515625 -17.625 C 22.628906 -17.414062 21.84375 -17.171875 21.15625 -16.890625 C 19.78125 -16.296875 18.410156 -15.632812 17.046875 -14.90625 C 6.066406 -9.519531 -4.898438 -3.976562 -15.859375 1.71875 C -26.816406 7.414062 -37.546875 13.457031 -48.046875 19.84375 C -54.453125 23.726562 -60.460938 28.222656 -66.078125 33.328125 C -70.628906 37.609375 -72.769531 41.304688 -72.5 44.421875 C -72.238281 47.535156 -69.429688 50.289062 -64.078125 52.6875 C -51.878906 58.632812 -38.859375 60.867188 -25.015625 59.390625 C -15.585938 58.210938 -8 54.457031 -2.25 48.125 C 3.488281 41.789062 8.128906 34.273438 11.671875 25.578125 C 15.210938 16.890625 18.257812 8.222656 20.8125 -0.421875 C 21.914062 -4.484375 23.109375 -8.332031 24.390625 -11.96875 Z M 24.390625 -11.96875 "/></g></g><g transform="translate(688.865721, 463.646062)"><g/></g><g transform="translate(760.360435, 461.870131)"><g><path d="M 475.09375 -8.203125 C 475.34375 -8.085938 475.613281 -7.859375 475.90625 -7.515625 C 476.207031 -7.171875 476.363281 -6.78125 476.375 -6.34375 C 476.382812 -5.644531 476.1875 -5.085938 475.78125 -4.671875 C 475.382812 -4.253906 474.90625 -4.039062 474.34375 -4.03125 L 472.453125 -4.171875 C 472.191406 -4.035156 472 -3.96875 471.875 -3.96875 C 436.84375 -5.039062 402.332031 -5.359375 368.34375 -4.921875 C 334.351562 -4.492188 300.085938 -3.789062 265.546875 -2.8125 C 259.867188 -2.664062 254.253906 -2.523438 248.703125 -2.390625 C 245.242188 -2.304688 242.457031 -1.578125 240.34375 -0.203125 C 238.226562 1.171875 236.457031 3.550781 235.03125 6.9375 C 226.644531 27.394531 218.066406 47.789062 209.296875 68.125 C 204.535156 79.21875 199.796875 90.316406 195.078125 101.421875 C 191.679688 109.523438 188.347656 117.710938 185.078125 125.984375 C 183.359375 130.054688 181.726562 134.132812 180.1875 138.21875 C 180.070312 138.601562 179.863281 139.015625 179.5625 139.453125 C 179.332031 140.597656 178.882812 141.65625 178.21875 142.625 C 177.101562 143.59375 175.648438 144.175781 173.859375 144.375 C 172.078125 144.582031 170.515625 144.273438 169.171875 143.453125 C 167.828125 142.640625 167.410156 141.1875 167.921875 139.09375 C 169.085938 135.59375 170.390625 132.179688 171.828125 128.859375 C 184.367188 98.140625 197.015625 67.421875 209.765625 36.703125 C 212.734375 29.566406 215.734375 22.335938 218.765625 15.015625 C 219.179688 13.929688 219.625 12.753906 220.09375 11.484375 C 221.164062 8.929688 222.238281 6.40625 223.3125 3.90625 C 224.3125 1.113281 223.582031 -0.40625 221.125 -0.65625 C 203.476562 0.21875 185.9375 1.4375 168.5 3 C 159.382812 3.738281 150.164062 4.441406 140.84375 5.109375 C 135.601562 5.367188 132.003906 7.953125 130.046875 12.859375 C 121.398438 32.816406 112.367188 52.625 102.953125 72.28125 C 97.429688 83.90625 91.820312 95.5625 86.125 107.25 C 84.019531 111.46875 81.914062 115.6875 79.8125 119.90625 C 78.613281 122.570312 77.289062 125.09375 75.84375 127.46875 C 74.375 129.582031 72.351562 130.90625 69.78125 131.4375 C 67.21875 131.976562 64.960938 131.894531 63.015625 131.1875 C 61.078125 130.476562 60.148438 129.300781 60.234375 127.65625 C 60.835938 124.425781 61.738281 121.351562 62.9375 118.4375 C 72.257812 92.644531 82.507812 67.28125 93.6875 42.34375 C 97.632812 33.46875 101.578125 24.601562 105.515625 15.75 C 106.585938 12.9375 105.796875 11.390625 103.140625 11.109375 C 100.484375 10.835938 96.601562 11.046875 91.5 11.734375 C 91.375 11.734375 91.15625 11.738281 90.84375 11.75 C 81.96875 12.789062 72.867188 14.265625 63.546875 16.171875 C 54.234375 18.078125 48.140625 19.472656 45.265625 20.359375 C 42.378906 21.128906 39.425781 21.550781 36.40625 21.625 C 36.207031 21.8125 35.984375 21.910156 35.734375 21.921875 C 35.484375 21.929688 35.203125 21.84375 34.890625 21.65625 L 33.28125 21.984375 C 32.707031 21.992188 32.128906 21.785156 31.546875 21.359375 C 30.972656 20.929688 30.675781 20.375 30.65625 19.6875 C 30.78125 19.300781 31.007812 18.816406 31.34375 18.234375 C 31.675781 17.660156 32.054688 17.242188 32.484375 16.984375 C 43.492188 12.804688 54.75 9.816406 66.25 8.015625 C 79.375 5.734375 92.503906 3.734375 105.640625 2.015625 C 110.054688 1.785156 113.132812 -0.3125 114.875 -4.28125 C 118.519531 -12.257812 122.320312 -20.234375 126.28125 -28.203125 C 131.03125 -37.660156 135.875 -47.085938 140.8125 -56.484375 C 142.5 -59.992188 144.210938 -63.503906 145.953125 -67.015625 C 146.203125 -67.347656 146.414062 -67.707031 146.59375 -68.09375 C 147.0625 -69.238281 147.632812 -70.289062 148.3125 -71.25 C 151.675781 -75.363281 154.484375 -79.8125 156.734375 -84.59375 C 158.984375 -89.382812 161.023438 -94.300781 162.859375 -99.34375 C 163.742188 -101.4375 164.601562 -103.535156 165.4375 -105.640625 C 181.269531 -143.890625 196.878906 -182.222656 212.265625 -220.640625 C 219.335938 -237.472656 224.675781 -254.765625 228.28125 -272.515625 C 229.757812 -278.910156 230.007812 -285.285156 229.03125 -291.640625 C 228.125 -295.335938 225.648438 -297.210938 221.609375 -297.265625 C 217.566406 -297.328125 212.707031 -296.164062 207.03125 -293.78125 C 201.351562 -291.40625 195.460938 -288.546875 189.359375 -285.203125 C 183.253906 -281.867188 177.75 -278.613281 172.84375 -275.4375 C 167.945312 -272.269531 164.320312 -269.894531 161.96875 -268.3125 C 161.28125 -267.914062 160.816406 -267.625 160.578125 -267.4375 C 96.515625 -225.332031 39.460938 -175.273438 -10.578125 -117.265625 C -16.097656 -110.878906 -21.375 -104.296875 -26.40625 -97.515625 C -31.4375 -90.742188 -36.035156 -83.609375 -40.203125 -76.109375 C -43.347656 -70.484375 -45.820312 -64.625 -47.625 -58.53125 C -49.800781 -49.132812 -48.945312 -42.023438 -45.0625 -37.203125 C -41.1875 -32.378906 -35.476562 -29.222656 -27.9375 -27.734375 C -20.394531 -26.253906 -12.234375 -25.875 -3.453125 -26.59375 C 5.328125 -27.320312 13.59375 -28.425781 21.34375 -29.90625 C 29.09375 -31.394531 35.097656 -32.820312 39.359375 -34.1875 C 44.429688 -35.570312 49.546875 -36.894531 54.703125 -38.15625 C 59.097656 -39.09375 60.332031 -38.84375 58.40625 -37.40625 C 56.476562 -35.96875 52.296875 -33.953125 45.859375 -31.359375 C 39.429688 -28.773438 31.691406 -26.21875 22.640625 -23.6875 C 13.585938 -21.164062 4.21875 -19.296875 -5.46875 -18.078125 C -15.15625 -16.867188 -24.269531 -16.847656 -32.8125 -18.015625 C -41.351562 -19.191406 -48.363281 -22.1875 -53.84375 -27 C -59.332031 -31.8125 -62.257812 -39.070312 -62.625 -48.78125 C -62.632812 -49.03125 -62.640625 -49.28125 -62.640625 -49.53125 C -62.484375 -55.664062 -61.179688 -61.535156 -58.734375 -67.140625 C -54.628906 -77.273438 -49.304688 -86.710938 -42.765625 -95.453125 C -35.867188 -104.898438 -28.65625 -114.035156 -21.125 -122.859375 C 27.445312 -178.890625 82.507812 -227.570312 144.0625 -268.90625 C 151.320312 -273.8125 159.765625 -279.191406 169.390625 -285.046875 C 179.023438 -290.910156 188.960938 -295.875 199.203125 -299.9375 C 209.441406 -304.007812 219.078125 -305.96875 228.109375 -305.8125 C 238.097656 -305.488281 243.679688 -300.421875 244.859375 -290.609375 C 245.398438 -286.960938 245.472656 -283.398438 245.078125 -279.921875 C 244.691406 -276.441406 244.101562 -272.960938 243.3125 -269.484375 C 243.195312 -268.972656 243.082031 -268.429688 242.96875 -267.859375 C 241.34375 -259.492188 239.175781 -251.316406 236.46875 -243.328125 C 233.769531 -235.335938 230.847656 -227.429688 227.703125 -219.609375 C 200.941406 -151.316406 172.84375 -83.648438 143.40625 -16.609375 C 142.519531 -14.640625 141.691406 -12.601562 140.921875 -10.5 C 139.617188 -7.25 139.816406 -5.03125 141.515625 -3.84375 C 143.210938 -2.65625 146.03125 -2.109375 149.96875 -2.203125 C 153.90625 -2.304688 158.523438 -2.609375 163.828125 -3.109375 C 164.648438 -3.128906 165.460938 -3.25 166.265625 -3.46875 C 169.722656 -3.675781 173.242188 -3.953125 176.828125 -4.296875 C 192.753906 -5.953125 208.5625 -7.195312 224.25 -8.03125 C 227.019531 -8.09375 228.914062 -9.304688 229.9375 -11.671875 C 231.132812 -14.234375 232.265625 -16.816406 233.328125 -19.421875 C 252.710938 -65.003906 272.914062 -110.203125 293.9375 -155.015625 C 314.96875 -199.828125 336.316406 -244.476562 357.984375 -288.96875 C 358.222656 -289.550781 358.488281 -290.125 358.78125 -290.6875 C 359.539062 -292.789062 360.726562 -294.554688 362.34375 -295.984375 C 363.582031 -296.710938 365.035156 -297.097656 366.703125 -297.140625 C 368.378906 -297.179688 369.8125 -296.835938 371 -296.109375 C 372.1875 -295.390625 372.457031 -294.039062 371.8125 -292.0625 C 371.695312 -291.625 371.519531 -291.144531 371.28125 -290.625 C 369.5625 -285.851562 367.65625 -281.144531 365.5625 -276.5 C 354.914062 -253.644531 344.164062 -230.820312 333.3125 -208.03125 C 329.53125 -199.925781 325.722656 -191.789062 321.890625 -183.625 C 296.722656 -130.125 272.097656 -76.363281 248.015625 -22.34375 C 247.609375 -21.320312 247.164062 -20.335938 246.6875 -19.390625 C 246.144531 -18.234375 245.664062 -17.113281 245.25 -16.03125 C 243.8125 -12.65625 243.769531 -10.492188 245.125 -9.546875 C 246.476562 -8.597656 248.597656 -8.316406 251.484375 -8.703125 C 281.828125 -11.097656 312.789062 -12.226562 344.375 -12.09375 C 375.957031 -11.96875 407.300781 -11.472656 438.40625 -10.609375 C 447.945312 -10.390625 457.453125 -10.148438 466.921875 -9.890625 C 467.359375 -9.898438 467.703125 -9.910156 467.953125 -9.921875 C 469.210938 -9.953125 470.457031 -9.875 471.6875 -9.6875 C 472.925781 -9.5 474.0625 -9.003906 475.09375 -8.203125 Z M 475.09375 -8.203125 "/></g></g><g transform="translate(1059.957329, 454.428135)"><g><path d="M 36.59375 -40.78125 C 33.320312 -36.695312 29.425781 -32.929688 24.90625 -29.484375 C 20.394531 -26.035156 15.253906 -23.65625 9.484375 -22.34375 C 3.710938 -21.03125 -0.804688 -21.335938 -4.078125 -23.265625 C -7.347656 -25.203125 -8.085938 -29.660156 -6.296875 -36.640625 C -3.960938 -43.890625 -0.664062 -50.820312 3.59375 -57.4375 C 4.570312 -58.84375 5.992188 -59.859375 7.859375 -60.484375 C 9.253906 -60.828125 10.476562 -60.613281 11.53125 -59.84375 C 12.582031 -59.082031 13 -58.101562 12.78125 -56.90625 C 11.894531 -54.601562 10.910156 -52.304688 9.828125 -50.015625 C 8.742188 -47.722656 8.023438 -46.222656 7.671875 -45.515625 C 5.566406 -41.421875 4.125 -37.160156 3.34375 -32.734375 C 3.40625 -30.210938 6.78125 -30.132812 13.46875 -32.5 C 20.164062 -34.875 26.625 -39.085938 32.84375 -45.140625 C 39.070312 -51.191406 42.070312 -53 41.84375 -50.5625 C 41.613281 -48.132812 39.863281 -44.875 36.59375 -40.78125 Z M 19.3125 -72.03125 C 19.007812 -71.769531 18.375 -71.453125 17.40625 -71.078125 C 16.4375 -70.703125 15.398438 -70.421875 14.296875 -70.234375 C 13.191406 -70.054688 12.316406 -70.210938 11.671875 -70.703125 C 11.035156 -71.191406 10.984375 -72.191406 11.515625 -73.703125 C 12.460938 -76.378906 13.460938 -78.722656 14.515625 -80.734375 C 15.566406 -82.753906 16.945312 -84.984375 18.65625 -87.421875 C 19.757812 -88.523438 20.96875 -89.140625 22.28125 -89.265625 C 23.601562 -89.390625 24.71875 -89.066406 25.625 -88.296875 C 26.53125 -87.535156 26.804688 -86.453125 26.453125 -85.046875 C 25.191406 -80.035156 22.8125 -75.695312 19.3125 -72.03125 Z M 19.3125 -72.03125 "/></g></g><g transform="translate(1096.839523, 453.511981)"><g><path d="M 82.734375 -51.875 C 84.066406 -51.5625 84.769531 -51.085938 84.84375 -50.453125 C 84.925781 -49.828125 84.96875 -49.515625 84.96875 -49.515625 C 83.519531 -46.828125 81.84375 -44.359375 79.9375 -42.109375 C 75.59375 -37.015625 70.492188 -32.910156 64.640625 -29.796875 C 61.785156 -28.085938 58.53125 -27.125 54.875 -26.90625 C 46.4375 -26.570312 42.457031 -30.578125 42.9375 -38.921875 C 43.207031 -40.679688 43.578125 -42.425781 44.046875 -44.15625 C 44.335938 -44.96875 44.535156 -45.789062 44.640625 -46.625 C 45.378906 -49.675781 45.570312 -51.367188 45.21875 -51.703125 C 44.863281 -52.035156 43.894531 -51.140625 42.3125 -49.015625 C 41.882812 -48.628906 41.484375 -48.210938 41.109375 -47.765625 C 38.660156 -44.671875 36.148438 -41.644531 33.578125 -38.6875 C 28.859375 -33.007812 23.425781 -28.207031 17.28125 -24.28125 C 13.613281 -21.988281 9.703125 -20.726562 5.546875 -20.5 C -1.253906 -20 -5.144531 -23.015625 -6.125 -29.546875 C -6.507812 -32.191406 -6.453125 -34.816406 -5.953125 -37.421875 C -3.429688 -48.210938 1.914062 -56.515625 10.09375 -62.328125 C 18.28125 -68.140625 27.75 -70.363281 38.5 -69 C 41.550781 -68.1875 43.738281 -69.054688 45.0625 -71.609375 C 45.601562 -72.578125 46.144531 -73.566406 46.6875 -74.578125 C 49.46875 -79.628906 52.1875 -84.6875 54.84375 -89.75 C 59.832031 -99.457031 64.859375 -109.234375 69.921875 -119.078125 C 73.992188 -126.804688 78.082031 -134.597656 82.1875 -142.453125 C 83.382812 -144.878906 84.710938 -147.21875 86.171875 -149.46875 C 86.835938 -150.550781 87.6875 -151.21875 88.71875 -151.46875 C 89.757812 -151.71875 90.847656 -151.859375 91.984375 -151.890625 C 92.234375 -151.898438 92.515625 -151.90625 92.828125 -151.90625 C 94.085938 -151.9375 95.101562 -151.644531 95.875 -151.03125 C 96.65625 -150.425781 96.835938 -149.582031 96.421875 -148.5 C 95.671875 -145.820312 94.757812 -143.269531 93.6875 -140.84375 C 88.175781 -129.113281 83 -117.238281 78.15625 -105.21875 C 73.3125 -93.207031 68.550781 -81.125 63.875 -68.96875 C 62.332031 -64.757812 60.765625 -60.550781 59.171875 -56.34375 C 57.203125 -51.4375 55.59375 -46.414062 54.34375 -41.28125 C 53.976562 -40.132812 53.8125 -39.007812 53.84375 -37.90625 C 53.875 -36.800781 54.429688 -35.851562 55.515625 -35.0625 C 56.234375 -34.632812 56.960938 -34.570312 57.703125 -34.875 C 58.453125 -35.175781 59.265625 -35.53125 60.140625 -35.9375 C 60.265625 -36.125 60.453125 -36.285156 60.703125 -36.421875 C 66.597656 -40.035156 71.976562 -44.332031 76.84375 -49.3125 C 77.632812 -50.15625 78.476562 -50.867188 79.375 -51.453125 C 80.28125 -52.046875 81.398438 -52.1875 82.734375 -51.875 Z M 35.859375 -56.8125 C 36.523438 -57.96875 36.703125 -59.0625 36.390625 -60.09375 C 36.085938 -61.132812 35.359375 -61.890625 34.203125 -62.359375 C 31.835938 -63.554688 29.347656 -63.65625 26.734375 -62.65625 C 20.296875 -60.53125 14.953125 -56.671875 10.703125 -51.078125 C 6.453125 -45.484375 4.222656 -39.375 4.015625 -32.75 C 4.148438 -32.425781 4.21875 -32.203125 4.21875 -32.078125 C 4.238281 -31.515625 4.253906 -30.945312 4.265625 -30.375 C 4.898438 -27.363281 6.785156 -26.828125 9.921875 -28.765625 C 13.066406 -30.710938 16.554688 -33.8125 20.390625 -38.0625 C 24.222656 -42.320312 27.65625 -46.367188 30.6875 -50.203125 C 33.71875 -54.035156 35.441406 -56.238281 35.859375 -56.8125 Z M 35.859375 -56.8125 "/></g></g><g transform="translate(1175.899816, 451.548121)"><g><path d="M 67.40625 -49.890625 C 68.914062 -49.078125 69.082031 -47.015625 67.90625 -43.703125 C 66.132812 -41.253906 64.234375 -38.960938 62.203125 -36.828125 C 60.171875 -34.691406 57.945312 -32.773438 55.53125 -31.078125 C 55.34375 -31.078125 55.25 -31.015625 55.25 -30.890625 C 53.644531 -29.710938 51.9375 -28.691406 50.125 -27.828125 C 35.1875 -22.046875 27.414062 -25.039062 26.8125 -36.8125 C 20.832031 -31.351562 16.816406 -28.003906 14.765625 -26.765625 C 9.859375 -23.691406 4.5 -22.238281 -1.3125 -22.40625 C -5.601562 -22.550781 -8.550781 -23.78125 -10.15625 -26.09375 C -11.757812 -28.414062 -11.695312 -31.625 -9.96875 -35.71875 C -7.351562 -42.144531 -3.550781 -47.910156 1.4375 -53.015625 C 7.289062 -58.722656 13.832031 -63.335938 21.0625 -66.859375 C 24.90625 -68.910156 28.976562 -69.769531 33.28125 -69.4375 C 37.582031 -69.289062 40.226562 -66.925781 41.21875 -62.34375 C 41.632812 -60.96875 41.316406 -59.726562 40.265625 -58.625 C 38.910156 -57.332031 37.3125 -57.015625 35.46875 -57.671875 C 35.34375 -57.660156 35.171875 -57.679688 34.953125 -57.734375 C 34.734375 -57.796875 34.554688 -57.890625 34.421875 -58.015625 C 32.523438 -60.492188 30.648438 -61.503906 28.796875 -61.046875 C 26.953125 -60.585938 25.003906 -59.703125 22.953125 -58.390625 C 13.398438 -52.472656 6.382812 -44.378906 1.90625 -34.109375 C 1.65625 -33.660156 1.503906 -33.164062 1.453125 -32.625 C 1.410156 -32.082031 1.582031 -31.660156 1.96875 -31.359375 C 3.113281 -31.015625 4.375 -31.128906 5.75 -31.703125 C 7.125 -32.273438 8.488281 -33.09375 9.84375 -34.15625 C 11.207031 -35.226562 12.351562 -36.128906 13.28125 -36.859375 C 13.40625 -37.046875 13.46875 -37.140625 13.46875 -37.140625 C 17.96875 -41.097656 22.375 -45.148438 26.6875 -49.296875 C 28.59375 -51.429688 30.988281 -52.660156 33.875 -52.984375 C 38.039062 -53.085938 39.820312 -51.269531 39.21875 -47.53125 C 38.875 -46.125 38.5 -44.722656 38.09375 -43.328125 C 36.601562 -37.296875 36.628906 -33.78125 38.171875 -32.78125 C 39.710938 -31.78125 42.03125 -31.835938 45.125 -32.953125 C 48.21875 -34.066406 51.285156 -36.128906 54.328125 -39.140625 C 57.378906 -42.148438 59.945312 -44.894531 62.03125 -47.375 C 64.113281 -49.863281 65.90625 -50.703125 67.40625 -49.890625 Z M 67.40625 -49.890625 "/></g></g><g transform="translate(1238.599545, 449.990658)"><g><path d="M 73 -51.15625 C 73.851562 -49.570312 72.554688 -47.078125 69.109375 -43.671875 C 65.671875 -40.273438 59.570312 -36.101562 50.8125 -31.15625 C 47.5 -29.6875 45.09375 -28.523438 43.59375 -27.671875 C 42.101562 -26.816406 41.023438 -25.75 40.359375 -24.46875 C 39.703125 -23.1875 38.992188 -21.210938 38.234375 -18.546875 C 37.597656 -16.578125 36.753906 -13.941406 35.703125 -10.640625 C 34.273438 -6.566406 32.859375 -2.363281 31.453125 1.96875 C 28.898438 10.800781 25.820312 19.535156 22.21875 28.171875 C 18.625 36.804688 13.878906 44.382812 7.984375 50.90625 C 2.085938 57.425781 -5.597656 61.84375 -15.078125 64.15625 C -24.597656 66.21875 -33.847656 66.726562 -42.828125 65.6875 C -51.816406 64.65625 -60.648438 62.382812 -69.328125 58.875 C -72.828125 57.382812 -75.992188 55.378906 -78.828125 52.859375 C -83.546875 48.242188 -84.023438 42.957031 -80.265625 37 C -78.253906 34.050781 -75.890625 31.375 -73.171875 28.96875 C -67.753906 24.363281 -62.054688 20.128906 -56.078125 16.265625 C -44.972656 9.171875 -33.59375 2.640625 -21.9375 -3.328125 C -10.289062 -9.296875 1.488281 -15.082031 13.40625 -20.6875 C 14.21875 -21.082031 15.125 -21.507812 16.125 -21.96875 C 19.351562 -23.570312 22.679688 -25.171875 26.109375 -26.765625 C 28.472656 -27.703125 30.039062 -29.347656 30.8125 -31.703125 C 31.039062 -32.523438 31.082031 -33.28125 30.9375 -33.96875 C 30.800781 -34.40625 30.5625 -34.65625 30.21875 -34.71875 C 29.875 -34.78125 29.476562 -34.671875 29.03125 -34.390625 C 27.851562 -33.679688 26.644531 -32.867188 25.40625 -31.953125 C 24.71875 -31.554688 23.984375 -31.0625 23.203125 -30.46875 C 18.910156 -27.84375 14.425781 -26.628906 9.75 -26.828125 C 2.375 -26.640625 -1.457031 -29.859375 -1.75 -36.484375 C -2.019531 -41.898438 -1.222656 -47.0625 0.640625 -51.96875 C 2.515625 -56.875 5.226562 -61.519531 8.78125 -65.90625 C 9.144531 -66.34375 9.664062 -66.710938 10.34375 -67.015625 C 11.03125 -67.316406 11.722656 -67.539062 12.421875 -67.6875 C 12.546875 -67.695312 12.703125 -67.765625 12.890625 -67.890625 C 14.273438 -68.046875 15.351562 -67.722656 16.125 -66.921875 C 16.90625 -66.117188 17.085938 -65.082031 16.671875 -63.8125 C 15.910156 -62.03125 15.140625 -60.210938 14.359375 -58.359375 C 13.691406 -56.953125 13.03125 -55.550781 12.375 -54.15625 C 9.726562 -48.65625 8.613281 -42.945312 9.03125 -37.03125 C 9.1875 -35.769531 9.753906 -34.867188 10.734375 -34.328125 C 11.722656 -33.785156 12.847656 -33.816406 14.109375 -34.421875 C 17.785156 -36.023438 20.972656 -38.242188 23.671875 -41.078125 C 31.003906 -48.078125 36.988281 -56.085938 41.625 -65.109375 C 42.28125 -66.378906 43.054688 -67.46875 43.953125 -68.375 C 44.847656 -69.28125 46.050781 -69.8125 47.5625 -69.96875 C 49.507812 -70.21875 51.015625 -69.832031 52.078125 -68.8125 C 53.148438 -67.800781 53.484375 -66.4375 53.078125 -64.71875 C 51.460938 -59 49.742188 -53.34375 47.921875 -47.75 C 47.804688 -47.300781 47.660156 -46.882812 47.484375 -46.5 C 47.003906 -45.226562 46.5625 -43.890625 46.15625 -42.484375 C 45.757812 -41.085938 45.570312 -39.867188 45.59375 -38.828125 C 45.625 -37.796875 46.078125 -37.289062 46.953125 -37.3125 C 50.398438 -38.082031 55.390625 -40.976562 61.921875 -46 C 68.460938 -51.03125 72.15625 -52.75 73 -51.15625 Z M 24.390625 -11.96875 C 24.378906 -12.28125 24.46875 -12.566406 24.65625 -12.828125 C 25.019531 -13.535156 25.222656 -14.296875 25.265625 -15.109375 C 25.304688 -15.929688 25.0625 -16.78125 24.53125 -17.65625 C 24.101562 -17.644531 23.765625 -17.632812 23.515625 -17.625 C 22.628906 -17.414062 21.84375 -17.171875 21.15625 -16.890625 C 19.78125 -16.296875 18.410156 -15.632812 17.046875 -14.90625 C 6.066406 -9.519531 -4.898438 -3.976562 -15.859375 1.71875 C -26.816406 7.414062 -37.546875 13.457031 -48.046875 19.84375 C -54.453125 23.726562 -60.460938 28.222656 -66.078125 33.328125 C -70.628906 37.609375 -72.769531 41.304688 -72.5 44.421875 C -72.238281 47.535156 -69.429688 50.289062 -64.078125 52.6875 C -51.878906 58.632812 -38.859375 60.867188 -25.015625 59.390625 C -15.585938 58.210938 -8 54.457031 -2.25 48.125 C 3.488281 41.789062 8.128906 34.273438 11.671875 25.578125 C 15.210938 16.890625 18.257812 8.222656 20.8125 -0.421875 C 21.914062 -4.484375 23.109375 -8.332031 24.390625 -11.96875 Z M 24.390625 -11.96875 "/></g></g><g transform="translate(1307.446306, 448.280502)"><g><path d="M 67.40625 -49.890625 C 68.914062 -49.078125 69.082031 -47.015625 67.90625 -43.703125 C 66.132812 -41.253906 64.234375 -38.960938 62.203125 -36.828125 C 60.171875 -34.691406 57.945312 -32.773438 55.53125 -31.078125 C 55.34375 -31.078125 55.25 -31.015625 55.25 -30.890625 C 53.644531 -29.710938 51.9375 -28.691406 50.125 -27.828125 C 35.1875 -22.046875 27.414062 -25.039062 26.8125 -36.8125 C 20.832031 -31.351562 16.816406 -28.003906 14.765625 -26.765625 C 9.859375 -23.691406 4.5 -22.238281 -1.3125 -22.40625 C -5.601562 -22.550781 -8.550781 -23.78125 -10.15625 -26.09375 C -11.757812 -28.414062 -11.695312 -31.625 -9.96875 -35.71875 C -7.351562 -42.144531 -3.550781 -47.910156 1.4375 -53.015625 C 7.289062 -58.722656 13.832031 -63.335938 21.0625 -66.859375 C 24.90625 -68.910156 28.976562 -69.769531 33.28125 -69.4375 C 37.582031 -69.289062 40.226562 -66.925781 41.21875 -62.34375 C 41.632812 -60.96875 41.316406 -59.726562 40.265625 -58.625 C 38.910156 -57.332031 37.3125 -57.015625 35.46875 -57.671875 C 35.34375 -57.660156 35.171875 -57.679688 34.953125 -57.734375 C 34.734375 -57.796875 34.554688 -57.890625 34.421875 -58.015625 C 32.523438 -60.492188 30.648438 -61.503906 28.796875 -61.046875 C 26.953125 -60.585938 25.003906 -59.703125 22.953125 -58.390625 C 13.398438 -52.472656 6.382812 -44.378906 1.90625 -34.109375 C 1.65625 -33.660156 1.503906 -33.164062 1.453125 -32.625 C 1.410156 -32.082031 1.582031 -31.660156 1.96875 -31.359375 C 3.113281 -31.015625 4.375 -31.128906 5.75 -31.703125 C 7.125 -32.273438 8.488281 -33.09375 9.84375 -34.15625 C 11.207031 -35.226562 12.351562 -36.128906 13.28125 -36.859375 C 13.40625 -37.046875 13.46875 -37.140625 13.46875 -37.140625 C 17.96875 -41.097656 22.375 -45.148438 26.6875 -49.296875 C 28.59375 -51.429688 30.988281 -52.660156 33.875 -52.984375 C 38.039062 -53.085938 39.820312 -51.269531 39.21875 -47.53125 C 38.875 -46.125 38.5 -44.722656 38.09375 -43.328125 C 36.601562 -37.296875 36.628906 -33.78125 38.171875 -32.78125 C 39.710938 -31.78125 42.03125 -31.835938 45.125 -32.953125 C 48.21875 -34.066406 51.285156 -36.128906 54.328125 -39.140625 C 57.378906 -42.148438 59.945312 -44.894531 62.03125 -47.375 C 64.113281 -49.863281 65.90625 -50.703125 67.40625 -49.890625 Z M 67.40625 -49.890625 "/></g></g><g transform="translate(1370.146035, 446.723039)"><g><path d="M 57.96875 -47.140625 C 49.769531 -36.972656 41.679688 -29.421875 33.703125 -24.484375 C 25.722656 -19.554688 17.09375 -17.78125 7.8125 -19.15625 C -1.46875 -20.539062 -5.425781 -26.644531 -4.0625 -37.46875 C -3.0625 -42.914062 -1.644531 -48.25 0.1875 -53.46875 C 4.738281 -65.632812 9.359375 -77.734375 14.046875 -89.765625 C 15.585938 -94.097656 17.210938 -98.460938 18.921875 -102.859375 C 19.347656 -103.804688 19.738281 -104.757812 20.09375 -105.71875 C 20.75 -107.320312 21.394531 -108.945312 22.03125 -110.59375 C 22.976562 -113.394531 21.84375 -114.820312 18.625 -114.875 C 16.800781 -114.832031 15.003906 -114.789062 13.234375 -114.75 C 12.421875 -114.726562 11.507812 -114.703125 10.5 -114.671875 C 9.5625 -114.515625 8.585938 -114.363281 7.578125 -114.21875 C 5.941406 -114.050781 4.316406 -113.945312 2.703125 -113.90625 C 1.097656 -113.863281 -0.40625 -114.238281 -1.8125 -115.03125 C -2.195312 -115.144531 -2.503906 -115.375 -2.734375 -115.71875 C -2.960938 -116.0625 -3.082031 -116.453125 -3.09375 -116.890625 C -2.96875 -117.140625 -2.769531 -117.441406 -2.5 -117.796875 C -2.226562 -118.148438 -1.867188 -118.394531 -1.421875 -118.53125 C -0.0546875 -119.132812 1.378906 -119.582031 2.890625 -119.875 C 6.796875 -120.164062 10.671875 -120.421875 14.515625 -120.640625 C 16.023438 -120.671875 17.347656 -120.703125 18.484375 -120.734375 C 20.992188 -120.796875 22.863281 -120.9375 24.09375 -121.15625 C 25.320312 -121.375 26.300781 -122.054688 27.03125 -123.203125 C 27.757812 -124.359375 28.597656 -126.113281 29.546875 -128.46875 C 30.078125 -129.738281 30.734375 -131.144531 31.515625 -132.6875 C 33.492188 -137.144531 35.46875 -141.703125 37.4375 -146.359375 C 38.320312 -148.460938 39.242188 -150.507812 40.203125 -152.5 C 40.984375 -154.46875 42.238281 -156.007812 43.96875 -157.125 C 45.65625 -157.988281 47.140625 -157.960938 48.421875 -157.046875 C 48.804688 -156.804688 49.117188 -156.40625 49.359375 -155.84375 C 49.597656 -155.28125 49.722656 -154.78125 49.734375 -154.34375 C 49.796875 -151.882812 49.222656 -149.441406 48.015625 -147.015625 C 47.773438 -146.492188 47.503906 -145.882812 47.203125 -145.1875 C 46.441406 -142.90625 45.617188 -140.585938 44.734375 -138.234375 C 43.003906 -133.890625 41.378906 -129.457031 39.859375 -124.9375 C 39.429688 -124.101562 39.429688 -123.378906 39.859375 -122.765625 C 40.285156 -122.148438 40.910156 -121.851562 41.734375 -121.875 C 46.203125 -121.863281 50.582031 -121.910156 54.875 -122.015625 C 57.082031 -122.066406 59.289062 -122.125 61.5 -122.1875 C 68.4375 -122.226562 71.238281 -121.316406 69.90625 -119.453125 C 68.988281 -118.359375 67.976562 -117.71875 66.875 -117.53125 C 65.769531 -117.34375 64.648438 -117.332031 63.515625 -117.5 C 62.816406 -117.476562 62.125 -117.457031 61.4375 -117.4375 C 54.382812 -116.820312 47.390625 -116.367188 40.453125 -116.078125 C 37.234375 -115.992188 35.125 -114.488281 34.125 -111.5625 C 33.0625 -108.757812 32.023438 -105.957031 31.015625 -103.15625 C 29.535156 -99.46875 28.144531 -95.867188 26.84375 -92.359375 C 25.539062 -89.046875 24.234375 -85.703125 22.921875 -82.328125 C 19.546875 -73.796875 16.296875 -65.226562 13.171875 -56.625 C 11.234375 -51.019531 9.738281 -45.300781 8.6875 -39.46875 C 6.289062 -28.882812 10.457031 -24.957031 21.1875 -27.6875 C 31.707031 -30.46875 42.609375 -38.375 53.890625 -51.40625 C 58.859375 -54.738281 60.21875 -53.316406 57.96875 -47.140625 Z M 57.96875 -47.140625 "/></g></g></g></svg>